<?xml version="1.0" standalone="no"?>
<!DOCTYPE svg PUBLIC "-//W3C//DTD SVG 20010904//EN"
 "http://www.w3.org/TR/2001/REC-SVG-20010904/DTD/svg10.dtd">
<svg version="1.0" xmlns="http://www.w3.org/2000/svg"
 width="256.000000pt" height="256.000000pt" viewBox="0 0 256.000000 256.000000"
 preserveAspectRatio="xMidYMid meet">

<g transform="translate(0.000000,256.000000) scale(0.100000,-0.100000)"
fill="#000000" stroke="none">
<path d="M715 2530 c-35 -14 -64 -49 -76 -89 -10 -34 -9 -53 10 -125 11 -47
21 -89 21 -95 0 -5 -44 2 -97 16 -111 28 -148 25 -191 -15 -60 -56 -60 -148 0
-204 32 -30 72 -37 85 -14 7 11 26 9 112 -13 85 -22 105 -31 112 -49 5 -12 20
-27 33 -32 24 -9 29 -19 52 -114 6 -25 2 -33 -27 -57 l-33 -27 -41 33 c-59 48
-116 73 -193 87 -95 16 -232 -11 -276 -54 -30 -31 -31 -50 -6 -140 12 -43 44
-59 68 -34 13 13 14 23 4 67 -7 28 -10 54 -7 58 9 16 127 34 189 29 43 -4 80
-14 115 -33 50 -27 65 -45 38 -45 -22 0 -74 -58 -101 -113 -28 -55 -31 -81
-16 -121 12 -34 -2 -34 -55 -1 -22 13 -48 25 -57 25 -20 0 -40 -32 -33 -53 8
-19 72 -54 146 -78 55 -18 63 -19 78 -5 10 9 21 16 24 16 16 0 176 -84 226
-118 46 -32 51 -38 35 -47 -38 -22 -54 -46 -54 -80 0 -76 92 -114 145 -60 14
13 25 33 25 45 0 18 3 19 20 10 19 -10 19 -13 5 -47 -33 -78 -98 -118 -182
-111 -87 7 -145 69 -167 179 -8 35 -32 43 -56 19 -25 -25 -18 -76 20 -148 30
-56 30 -56 -17 -66 -31 -7 -31 -7 -42 44 -6 28 -11 64 -11 81 0 22 -6 32 -26
41 -54 25 -66 -46 -29 -167 l12 -41 -44 -38 c-53 -46 -92 -110 -112 -187 l-16
-58 -59 32 c-86 46 -100 69 -106 181 -5 81 -10 100 -36 142 -25 41 -35 49 -59
49 -24 0 -31 -5 -33 -23 -2 -14 5 -33 17 -46 29 -30 43 -83 35 -128 -16 -101
49 -194 184 -262 62 -31 70 -39 76 -70 8 -44 82 -154 112 -168 17 -8 27 -8 39
2 22 19 18 38 -16 78 -47 54 -69 114 -69 190 0 149 106 266 252 279 77 8 136
-10 217 -66 63 -43 166 -92 223 -105 42 -10 77 37 46 61 -7 5 -42 20 -77 33
l-64 24 39 13 c101 35 364 36 463 2 30 -11 32 -13 15 -22 -10 -6 -43 -18 -74
-28 -61 -19 -81 -39 -64 -66 25 -39 161 1 284 83 115 77 194 91 292 54 230
-86 246 -405 26 -514 -64 -32 -121 -33 -464 -7 -218 17 -261 17 -430 5 -399
-28 -377 -22 -362 -106 12 -63 27 -94 64 -132 80 -79 186 -85 289 -16 103 69
226 79 339 27 66 -31 96 -28 96 8 0 49 -130 105 -244 105 -82 0 -155 -23 -233
-72 -57 -36 -69 -40 -109 -35 -28 3 -55 13 -71 28 -28 27 -57 78 -49 87 10 9
323 32 451 32 66 1 213 -7 325 -16 352 -28 435 -12 540 103 41 45 90 138 90
172 0 4 28 21 62 37 147 70 180 114 188 255 5 86 9 101 35 134 30 40 27 66 -9
73 -47 10 -88 -74 -96 -196 -5 -70 -11 -99 -27 -120 -20 -28 -130 -99 -138
-90 -3 3 -12 32 -20 64 -22 84 -77 159 -155 211 -35 24 -81 46 -102 49 -30 5
-37 11 -40 32 -4 31 -32 51 -52 37 -55 -40 -73 -49 -116 -53 -65 -6 -93 2
-136 40 -38 34 -69 91 -59 108 11 17 35 11 35 -9 0 -11 14 -31 32 -46 38 -32
81 -29 116 11 33 38 29 80 -13 120 l-35 33 57 35 c32 20 61 36 64 36 4 0 21
-12 38 -26 57 -47 105 -10 66 50 -17 25 -16 26 10 36 54 21 55 18 81 -135 8
-47 20 -65 44 -65 37 0 42 23 25 116 -9 47 -15 87 -13 88 2 2 25 11 52 21 99
36 200 145 231 248 27 88 30 149 9 175 -24 28 -160 65 -187 50 -43 -22 -29
-62 26 -73 18 -4 48 -11 68 -17 l36 -10 -15 -62 c-26 -104 -88 -184 -179 -230
-43 -21 -43 -21 -30 19 19 62 -34 172 -103 214 -30 18 -30 18 -10 36 23 20 26
45 8 63 -20 20 -42 14 -87 -24 l-42 -37 -30 29 c-16 15 -29 37 -29 48 0 35 26
110 41 118 8 5 80 26 160 47 81 22 160 46 177 55 77 40 87 155 20 218 -51 47
-137 48 -152 1 -4 -13 -27 -24 -72 -36 -37 -10 -69 -16 -71 -13 -3 3 7 55 22
115 29 118 28 152 -7 196 -68 86 -198 66 -237 -37 -8 -22 -7 -31 6 -44 16 -15
16 -22 -5 -103 -38 -149 -43 -161 -57 -161 -20 0 -24 -9 -55 -127 -16 -58 -31
-107 -33 -109 -2 -3 -16 0 -30 5 -15 6 -61 15 -104 20 -91 11 -116 3 -111 -37
3 -25 7 -27 93 -39 50 -7 117 -22 150 -34 83 -30 211 -109 265 -163 41 -43 47
-46 97 -46 50 0 54 -2 83 -41 16 -23 32 -50 35 -60 12 -36 -17 -71 -80 -98
-105 -45 -213 -109 -296 -177 -45 -36 -91 -69 -103 -74 -58 -22 -126 31 -126
99 0 33 8 45 68 103 37 35 86 77 109 92 23 15 44 34 47 42 8 21 -3 42 -25 49
-38 12 -244 -164 -268 -228 -17 -44 -13 -97 10 -144 23 -47 48 -68 107 -88 20
-7 39 -21 41 -30 2 -14 -1 -16 -15 -11 -11 4 -45 13 -76 19 -62 11 -88 2 -88
-33 0 -24 18 -36 67 -44 66 -10 152 -45 187 -77 l31 -28 -55 15 c-144 38 -373
38 -505 -1 l-50 -15 49 44 c36 32 47 48 43 61 -4 9 -2 34 4 54 10 32 17 39 54
49 50 13 99 64 114 119 14 51 14 66 -5 112 -18 45 -48 61 -71 38 -13 -13 -14
-22 -2 -66 9 -38 10 -56 1 -75 -15 -33 -53 -57 -91 -58 -32 -1 -53 12 -176
108 -38 30 -123 81 -189 114 -65 33 -125 65 -132 71 -24 20 -16 65 19 111 31
40 37 43 79 42 36 0 73 -13 161 -58 64 -32 124 -56 134 -54 13 2 18 12 18 33
0 27 -8 33 -97 80 -54 28 -100 54 -104 57 -9 10 106 91 183 128 37 18 71 37
74 42 11 17 -2 47 -22 53 -11 4 -23 22 -28 43 -48 184 -50 194 -35 209 8 8 14
20 14 26 0 28 -73 294 -86 315 -33 51 -113 76 -169 52z"/>
<path d="M671 749 c-67 -27 -112 -84 -126 -161 -5 -27 -3 -39 10 -49 18 -16
21 -18 70 -76 20 -23 45 -45 56 -48 11 -4 24 -18 29 -31 11 -29 51 -32 108 -8
122 50 163 191 89 303 -45 67 -159 101 -236 70z"/>
<path d="M1719 737 c-64 -34 -102 -100 -102 -175 0 -66 18 -106 67 -149 102
-90 256 -60 312 60 30 65 32 113 4 122 -10 3 -29 25 -42 48 -16 29 -36 48 -65
62 -23 11 -44 28 -46 38 -7 25 -74 22 -128 -6z"/>
</g>
</svg>
